<svg id="svg" version="1.1" xmlns="http://www.w3.org/2000/svg" xmlns:xlink="http://www.w3.org/1999/xlink" width="400" height="400" viewBox="0, 0, 400,400"><g id="svgg"><path id="path0" d="M174.866 140.278 C 172.779 140.695,172.800 140.296,172.800 178.744 L 172.800 214.313 174.700 216.427 C 177.563 219.612,186.381 225.898,190.808 227.911 C 195.891 230.221,197.382 230.800,198.250 230.800 L 199.200 230.800 199.200 186.276 C 199.200 148.473,199.114 141.636,198.633 140.976 C 198.081 140.221,178.092 139.634,174.866 140.278 M245.212 163.491 C 244.404 163.903,243.709 164.618,243.551 165.200 C 243.214 166.441,243.108 229.695,243.442 230.564 C 243.952 231.895,252.086 228.601,258.190 224.592 C 259.691 223.607,260.995 222.800,261.088 222.800 C 261.387 222.800,265.336 219.492,267.500 217.429 L 269.600 215.427 269.600 189.923 L 269.600 164.418 268.519 163.709 C 266.857 162.619,247.277 162.436,245.212 163.491 M210.378 185.461 C 208.429 185.987,208.400 186.363,208.406 210.462 C 208.409 222.858,208.568 233.247,208.759 233.548 C 209.958 235.439,225.240 235.717,234.709 234.020 C 234.769 234.009,234.769 223.364,234.709 210.364 L 234.600 186.729 233.656 185.964 C 232.763 185.242,212.791 184.809,210.378 185.461 " stroke="none" fill="#f9fafa" fill-rule="evenodd"></path><path id="path1" d="M211.800 77.259 C 210.480 77.455,207.420 77.902,205.000 78.252 C 202.580 78.602,198.260 79.487,195.400 80.217 C 189.635 81.690,187.887 82.249,182.600 84.316 C 179.810 85.406,171.920 89.240,170.228 90.327 C 169.333 90.903,167.970 91.716,167.200 92.135 C 163.104 94.361,152.536 102.836,148.452 107.170 C 144.549 111.311,143.233 112.778,141.788 114.600 C 140.914 115.700,140.065 116.660,139.900 116.733 C 139.735 116.807,139.600 117.051,139.600 117.276 C 139.600 117.501,139.068 118.357,138.418 119.178 C 137.156 120.770,132.243 128.886,131.135 131.206 C 128.532 136.659,126.563 141.826,125.271 146.600 C 123.904 151.652,123.608 152.911,123.062 156.000 C 121.525 164.705,120.989 173.044,121.585 179.000 C 121.827 181.420,122.114 184.390,122.223 185.600 C 122.719 191.107,125.737 202.292,128.267 208.000 C 130.486 213.007,131.832 215.865,132.411 216.800 C 132.615 217.130,133.751 219.020,134.936 221.000 C 136.120 222.980,137.744 225.562,138.543 226.738 C 140.342 229.384,140.566 229.017,134.000 234.208 C 131.030 236.557,128.240 238.778,127.800 239.144 C 127.360 239.510,125.830 240.704,124.400 241.798 C 122.970 242.891,119.539 245.589,116.775 247.793 C 114.012 249.997,110.709 252.610,109.435 253.600 C 108.162 254.590,106.088 256.210,104.827 257.200 C 103.565 258.190,102.040 259.360,101.436 259.800 C 100.833 260.240,99.498 261.361,98.470 262.291 C 97.441 263.221,96.493 263.986,96.361 263.991 C 96.230 263.996,95.755 264.315,95.306 264.700 C 94.857 265.085,92.355 267.104,89.745 269.188 C 79.302 277.523,76.627 281.859,76.653 290.400 C 76.698 304.513,86.582 314.400,100.647 314.400 C 109.487 314.400,113.194 312.122,122.293 301.101 C 124.662 298.232,127.680 294.598,129.000 293.025 C 130.320 291.453,132.120 289.288,133.000 288.215 C 133.880 287.142,135.230 285.518,136.000 284.607 C 136.770 283.696,138.030 282.166,138.800 281.206 C 139.570 280.247,141.370 278.090,142.800 276.414 C 144.230 274.739,146.030 272.575,146.800 271.607 C 147.570 270.639,149.210 268.666,150.445 267.223 C 152.647 264.651,154.573 262.308,159.922 255.700 C 162.734 252.226,164.328 251.468,165.600 253.000 C 165.874 253.330,166.233 253.600,166.398 253.600 C 166.563 253.600,168.469 254.603,170.634 255.829 C 174.096 257.790,177.323 259.402,183.000 262.006 C 184.698 262.785,190.192 264.713,192.200 265.236 C 192.860 265.407,194.840 265.927,196.600 266.390 C 206.610 269.024,221.509 270.041,232.800 268.862 C 236.886 268.435,238.376 268.185,244.200 266.946 C 249.300 265.861,259.849 262.568,260.237 261.940 C 260.353 261.753,260.754 261.600,261.129 261.600 C 263.650 261.600,280.910 251.405,285.847 247.000 C 286.094 246.780,287.264 245.792,288.448 244.805 C 293.344 240.720,299.122 234.546,303.051 229.200 C 308.858 221.300,311.670 216.114,315.960 205.400 C 316.653 203.670,317.294 201.736,317.618 200.400 C 317.804 199.630,318.397 197.290,318.934 195.200 C 321.129 186.659,321.387 184.421,321.379 174.000 C 321.372 164.063,321.142 161.757,319.328 153.400 C 318.283 148.584,316.411 142.010,315.918 141.420 C 315.743 141.211,315.599 140.761,315.598 140.420 C 315.596 140.079,315.326 139.284,314.998 138.654 C 314.669 138.024,314.400 137.337,314.400 137.127 C 314.400 135.938,308.607 125.323,305.154 120.184 C 298.228 109.878,286.420 99.024,273.400 91.000 C 269.529 88.614,263.706 85.666,260.000 84.217 C 259.010 83.829,257.750 83.335,257.200 83.118 C 254.877 82.203,252.378 81.435,248.902 80.570 C 246.869 80.064,245.041 79.549,244.840 79.425 C 242.201 77.794,218.615 76.248,211.800 77.259 M229.600 99.400 C 235.223 100.055,238.919 100.655,240.400 101.152 C 240.950 101.336,242.480 101.804,243.800 102.191 C 246.921 103.106,254.583 106.298,256.492 107.478 C 257.313 107.985,258.141 108.400,258.332 108.400 C 258.523 108.400,259.425 108.940,260.337 109.600 C 261.248 110.260,262.103 110.800,262.238 110.800 C 264.708 110.800,283.600 129.498,283.600 131.943 C 283.600 132.158,283.742 132.393,283.916 132.467 C 284.433 132.685,286.524 136.331,288.580 140.600 C 289.640 142.800,290.663 144.913,290.854 145.295 C 292.108 147.808,294.316 155.873,295.427 162.000 C 296.373 167.219,296.379 180.032,295.437 184.815 C 294.475 189.699,293.577 193.679,293.228 194.600 C 293.061 195.040,292.608 196.390,292.222 197.600 C 287.034 213.828,272.473 231.233,257.980 238.528 C 257.221 238.910,256.330 239.393,256.000 239.602 C 255.302 240.045,251.006 241.957,248.400 242.985 C 247.410 243.376,246.240 243.839,245.800 244.014 C 245.360 244.189,244.190 244.537,243.200 244.787 C 242.210 245.038,240.410 245.505,239.200 245.825 C 226.181 249.269,211.803 248.575,197.000 243.785 C 181.767 238.857,164.656 224.830,157.254 211.205 C 150.282 198.371,147.749 189.468,147.352 176.400 C 147.076 167.319,147.513 162.827,149.514 154.200 C 149.940 152.365,152.269 145.447,152.794 144.460 C 152.987 144.097,153.729 142.540,154.444 141.000 C 161.883 124.961,178.443 109.656,194.600 103.887 C 196.530 103.198,200.943 101.719,202.600 101.207 C 208.932 99.249,221.235 98.426,229.600 99.400 " stroke="none" fill="#7aba44" fill-rule="evenodd"></path><path id="path2" d="M159.784 10.027 C 159.379 10.682,159.702 10.717,160.800 10.139 C 161.759 9.633,161.764 9.612,160.924 9.606 C 160.442 9.603,159.929 9.792,159.784 10.027 M252.000 14.551 C 252.000 14.634,252.270 14.926,252.600 15.200 C 253.091 15.608,253.200 15.580,253.200 15.049 C 253.200 14.692,252.930 14.400,252.600 14.400 C 252.270 14.400,252.000 14.468,252.000 14.551 M73.784 50.027 C 73.360 50.713,73.739 50.780,74.577 50.167 C 75.226 49.693,75.246 49.600,74.700 49.600 C 74.341 49.600,73.929 49.792,73.784 50.027 M65.722 57.366 C 65.105 57.897,64.690 58.396,64.800 58.474 C 64.910 58.552,65.518 58.117,66.150 57.508 C 67.565 56.145,67.259 56.043,65.722 57.366 M42.446 82.619 C 41.921 83.173,41.561 83.689,41.646 83.767 C 41.731 83.845,42.306 83.389,42.925 82.754 C 43.544 82.119,43.904 81.603,43.725 81.607 C 43.546 81.611,42.971 82.066,42.446 82.619 M33.969 94.500 C 33.523 95.958,33.775 96.367,34.400 95.200 C 34.690 94.658,34.695 94.400,34.414 94.400 C 34.186 94.400,33.986 94.445,33.969 94.500 M214.000 99.605 C 211.910 99.793,209.571 100.138,208.803 100.373 C 208.034 100.608,206.870 100.800,206.216 100.800 C 205.562 100.800,204.301 101.051,203.413 101.359 C 202.526 101.666,200.990 102.145,200.000 102.424 C 198.440 102.863,196.528 103.552,193.400 104.802 C 192.359 105.218,184.438 109.139,183.400 109.752 C 181.616 110.806,178.056 113.200,177.545 113.689 C 177.245 113.976,176.499 114.531,175.888 114.923 C 169.503 119.010,158.824 132.398,154.448 141.800 C 153.731 143.340,153.000 144.876,152.823 145.213 C 152.646 145.550,152.375 146.403,152.220 147.109 C 152.065 147.814,151.772 148.494,151.569 148.619 C 151.366 148.745,151.200 149.214,151.200 149.663 C 151.200 150.112,150.956 151.046,150.657 151.740 C 150.136 152.949,149.565 155.380,148.221 162.111 C 147.362 166.416,147.359 180.362,148.217 184.689 C 150.110 194.239,151.666 199.176,154.933 206.000 C 155.919 208.059,160.353 215.574,160.981 216.251 C 161.212 216.499,161.670 217.114,162.000 217.617 C 164.603 221.586,170.950 228.037,176.400 232.251 C 179.432 234.596,184.099 237.600,184.710 237.600 C 184.943 237.600,185.193 237.749,185.267 237.931 C 185.807 239.275,198.436 244.140,206.200 245.997 C 213.344 247.705,231.338 247.762,236.809 246.093 C 238.160 245.681,240.334 245.111,243.200 244.415 C 244.751 244.039,249.534 242.302,251.400 241.436 C 252.060 241.130,253.320 240.547,254.200 240.140 C 255.080 239.733,255.890 239.310,256.000 239.200 C 256.110 239.089,257.010 238.588,258.000 238.085 C 259.742 237.200,260.900 236.528,261.778 235.896 C 262.010 235.729,263.460 234.704,265.000 233.619 C 270.415 229.803,277.973 222.450,280.825 218.225 C 281.459 217.285,282.253 216.288,282.589 216.009 C 282.925 215.730,283.200 215.362,283.200 215.191 C 283.200 215.020,283.850 213.917,284.644 212.740 C 285.438 211.563,287.069 208.530,288.268 206.000 C 289.467 203.470,290.594 201.124,290.773 200.787 C 290.952 200.450,291.225 199.597,291.380 198.891 C 291.535 198.186,291.828 197.506,292.031 197.381 C 292.234 197.255,292.406 196.668,292.414 196.076 C 292.422 195.484,292.686 194.550,293.000 194.000 C 293.314 193.450,293.578 192.493,293.586 191.874 C 293.594 191.254,293.792 190.388,294.027 189.950 C 295.791 186.654,296.247 170.902,294.860 161.200 C 294.307 157.330,292.128 149.276,290.802 146.200 C 284.627 131.877,272.868 117.079,263.915 112.362 C 263.412 112.097,262.910 111.757,262.800 111.605 C 262.628 111.369,260.901 110.308,257.808 108.537 C 257.364 108.283,256.190 107.680,255.200 107.197 C 254.210 106.715,252.528 105.888,251.463 105.360 C 250.398 104.832,249.318 104.399,249.063 104.398 C 248.808 104.396,248.150 104.165,247.600 103.883 C 247.050 103.601,245.430 103.042,244.000 102.640 C 242.570 102.238,240.603 101.659,239.629 101.354 C 238.655 101.049,237.387 100.800,236.813 100.800 C 236.238 100.800,234.785 100.545,233.584 100.234 C 230.849 99.525,219.107 99.148,214.000 99.605 M199.176 140.176 L 200.403 141.353 200.302 186.776 L 200.200 232.200 199.166 232.320 C 198.590 232.387,197.903 232.165,197.617 231.820 C 197.334 231.479,196.786 231.200,196.400 231.200 C 195.439 231.200,190.272 229.072,189.600 228.400 C 189.490 228.290,188.680 227.842,187.800 227.404 C 186.920 226.966,186.056 226.381,185.880 226.104 C 185.704 225.827,185.204 225.600,184.768 225.600 C 184.332 225.600,183.871 225.330,183.745 225.000 C 183.618 224.670,183.335 224.400,183.115 224.400 C 182.709 224.400,180.220 222.553,178.404 220.904 C 177.856 220.407,177.285 220.000,177.135 220.000 C 176.985 220.000,176.322 219.460,175.662 218.800 C 175.002 218.140,174.313 217.594,174.131 217.587 C 172.166 217.513,172.200 218.200,172.200 178.108 L 172.200 140.815 173.192 140.108 C 174.869 138.911,175.465 138.860,186.874 138.931 L 197.949 139.000 199.176 140.176 M269.304 163.016 L 270.400 164.032 270.400 189.866 L 270.400 215.699 267.900 218.161 C 265.210 220.809,260.705 224.400,260.073 224.400 C 259.860 224.400,259.582 224.670,259.455 225.000 C 259.329 225.330,258.879 225.600,258.455 225.600 C 258.032 225.600,257.582 225.870,257.455 226.200 C 257.329 226.530,256.870 226.800,256.436 226.800 C 256.002 226.800,255.547 226.963,255.424 227.161 C 255.113 227.665,249.661 230.400,248.968 230.400 C 248.656 230.400,248.400 230.580,248.400 230.800 C 248.400 231.020,247.984 231.200,247.476 231.200 C 246.969 231.200,246.204 231.464,245.776 231.787 C 244.755 232.560,243.410 232.553,242.629 231.771 C 241.695 230.837,241.667 166.374,242.600 165.600 C 242.930 165.326,243.200 164.748,243.200 164.315 C 243.200 162.174,244.052 162.028,256.604 162.013 L 268.208 162.000 269.304 163.016 M235.253 186.394 C 235.957 187.708,236.000 189.089,236.000 210.661 C 236.000 235.422,236.041 234.800,234.391 234.800 C 233.772 234.800,233.192 235.025,233.100 235.300 C 232.829 236.115,212.482 236.258,210.723 235.457 C 209.995 235.125,209.040 234.795,208.600 234.722 C 207.812 234.591,207.798 234.238,207.697 210.654 L 207.594 186.719 208.497 185.763 L 209.400 184.806 221.953 184.903 L 234.505 185.000 235.253 186.394 M331.192 339.408 C 330.225 340.394,329.582 341.200,329.764 341.200 C 330.216 341.200,333.359 338.026,333.132 337.799 C 333.032 337.699,332.159 338.423,331.192 339.408 M269.423 379.433 C 268.774 379.907,268.754 380.000,269.300 380.000 C 269.659 380.000,270.071 379.808,270.216 379.573 C 270.640 378.887,270.261 378.820,269.423 379.433 M126.400 380.600 C 126.400 380.930,126.692 381.200,127.049 381.200 C 127.580 381.200,127.608 381.091,127.200 380.600 C 126.926 380.270,126.634 380.000,126.551 380.000 C 126.468 380.000,126.400 380.270,126.400 380.600 M259.600 383.090 L 258.200 383.626 259.571 383.409 C 260.909 383.197,261.502 382.925,261.167 382.677 C 261.075 382.609,260.370 382.795,259.600 383.090 M158.600 390.000 C 158.736 390.220,159.242 390.387,159.724 390.372 C 160.569 390.345,160.571 390.331,159.800 390.000 C 158.699 389.527,158.308 389.527,158.600 390.000 " stroke="none" fill="#3b4d64" fill-rule="evenodd"></path><path id="path3" d="M175.533 7.989 C 175.460 8.202,173.780 8.413,171.800 8.456 C 169.773 8.501,167.728 8.768,167.120 9.068 C 166.526 9.360,165.086 9.601,163.920 9.602 C 162.754 9.604,161.284 9.874,160.654 10.202 C 160.024 10.531,158.638 10.800,157.574 10.800 C 156.283 10.800,155.530 10.997,155.309 11.391 C 155.070 11.818,154.176 11.999,152.097 12.042 C 150.512 12.074,149.305 12.246,149.414 12.423 C 149.729 12.933,149.110 13.141,146.879 13.275 C 145.549 13.355,144.800 13.580,144.800 13.900 C 144.800 14.214,144.222 14.400,143.243 14.400 C 142.228 14.400,141.605 14.609,141.455 15.000 C 141.303 15.396,140.677 15.600,139.613 15.600 C 138.726 15.600,138.000 15.780,138.000 16.000 C 138.000 16.220,137.289 16.400,136.420 16.400 C 135.447 16.400,134.714 16.626,134.511 16.987 C 134.331 17.309,133.592 17.618,132.868 17.674 C 132.145 17.729,131.362 18.005,131.128 18.287 C 130.894 18.569,130.197 18.800,129.580 18.800 C 128.962 18.800,128.187 19.070,127.857 19.400 C 127.527 19.730,126.807 20.000,126.257 20.000 C 125.707 20.000,124.987 20.270,124.657 20.600 C 124.327 20.930,123.706 21.200,123.278 21.200 C 122.849 21.200,122.274 21.470,122.000 21.800 C 121.726 22.130,121.074 22.400,120.551 22.400 C 119.972 22.400,119.600 22.635,119.600 23.000 C 119.600 23.377,119.219 23.600,118.574 23.600 C 118.009 23.600,117.154 23.814,116.674 24.075 C 116.193 24.337,115.468 24.578,115.063 24.611 C 114.658 24.645,114.208 24.836,114.063 25.036 C 113.729 25.498,110.264 27.200,109.656 27.200 C 109.405 27.200,109.200 27.380,109.200 27.600 C 109.200 27.820,108.943 28.000,108.629 28.000 C 108.314 28.000,107.786 28.271,107.455 28.602 C 107.124 28.934,106.391 29.243,105.826 29.290 C 105.262 29.336,104.800 29.605,104.800 29.887 C 104.800 30.169,104.543 30.400,104.229 30.400 C 103.914 30.400,103.412 30.625,103.113 30.900 C 102.292 31.655,100.878 32.400,100.267 32.400 C 99.969 32.400,99.402 32.756,99.009 33.191 C 98.615 33.625,98.152 33.894,97.979 33.787 C 97.806 33.680,97.393 33.864,97.061 34.196 C 96.729 34.528,96.264 34.800,96.029 34.800 C 95.793 34.800,95.600 35.070,95.600 35.400 C 95.600 35.770,95.224 36.000,94.620 36.000 C 94.081 36.000,93.496 36.239,93.320 36.530 C 93.054 36.970,92.112 37.489,91.200 37.697 C 90.788 37.791,90.000 38.759,90.000 39.171 C 90.000 39.407,89.662 39.600,89.249 39.600 C 88.836 39.600,88.274 39.870,88.000 40.200 C 87.726 40.530,87.320 40.800,87.097 40.800 C 86.874 40.800,86.275 41.250,85.765 41.800 C 85.255 42.350,84.554 42.800,84.207 42.800 C 83.859 42.800,83.471 43.070,83.345 43.400 C 83.218 43.730,82.763 44.000,82.334 44.000 C 81.904 44.000,81.658 44.171,81.788 44.380 C 82.077 44.849,80.530 45.728,79.996 45.398 C 79.779 45.263,79.714 45.430,79.847 45.779 C 79.992 46.156,79.868 46.400,79.532 46.400 C 79.227 46.400,78.488 46.959,77.889 47.641 C 77.290 48.324,76.800 48.740,76.800 48.566 C 76.800 48.392,76.433 48.643,75.984 49.125 C 75.536 49.606,75.011 50.000,74.817 50.000 C 74.624 50.000,73.716 50.720,72.800 51.600 C 71.884 52.480,70.969 53.200,70.767 53.200 C 70.565 53.200,70.400 53.470,70.400 53.800 C 70.400 54.130,70.130 54.400,69.800 54.400 C 69.470 54.400,69.200 54.648,69.200 54.950 C 69.200 55.252,68.648 55.610,67.973 55.745 C 67.299 55.880,66.833 56.130,66.939 56.301 C 67.044 56.471,66.490 57.148,65.707 57.805 C 64.924 58.462,63.217 60.035,61.914 61.300 C 60.611 62.565,59.378 63.600,59.173 63.600 C 58.968 63.600,58.842 63.735,58.893 63.900 C 59.037 64.366,57.498 65.984,57.129 65.756 C 56.948 65.644,56.800 65.839,56.800 66.189 C 56.800 66.539,56.530 66.929,56.200 67.055 C 55.870 67.182,55.600 67.442,55.600 67.632 C 55.600 67.823,54.835 68.778,53.900 69.755 C 51.195 72.581,47.815 76.459,47.636 76.942 C 47.545 77.186,47.230 77.627,46.936 77.921 C 46.641 78.216,46.400 78.714,46.400 79.029 C 46.400 79.343,46.222 79.600,46.005 79.600 C 45.490 79.600,44.000 80.878,44.000 81.320 C 44.000 81.508,43.460 82.202,42.800 82.862 C 42.140 83.522,41.600 84.228,41.600 84.431 C 41.600 84.634,41.285 85.133,40.900 85.540 C 39.500 87.020,38.871 87.937,39.100 88.166 C 39.228 88.295,39.123 88.400,38.867 88.400 C 38.610 88.400,38.400 88.779,38.400 89.243 C 38.400 89.828,38.216 90.015,37.800 89.855 C 37.362 89.687,37.200 89.904,37.200 90.655 C 37.200 91.403,37.037 91.623,36.605 91.457 C 36.277 91.332,36.029 91.357,36.052 91.514 C 36.196 92.482,35.919 93.200,35.400 93.200 C 35.070 93.200,34.800 93.554,34.800 93.986 C 34.800 94.418,34.260 95.387,33.600 96.139 C 32.940 96.891,32.400 97.797,32.400 98.153 C 32.400 98.509,32.220 98.800,32.000 98.800 C 31.780 98.800,31.600 99.076,31.600 99.413 C 31.600 99.749,31.330 100.129,31.000 100.255 C 30.670 100.382,30.400 100.897,30.400 101.400 C 30.400 101.903,30.130 102.418,29.800 102.545 C 29.470 102.671,29.200 103.121,29.200 103.545 C 29.200 103.968,28.930 104.418,28.600 104.545 C 28.270 104.671,28.000 105.036,28.000 105.354 C 28.000 105.673,27.791 106.003,27.537 106.088 C 27.282 106.173,27.007 106.683,26.925 107.221 C 26.844 107.760,26.602 108.260,26.388 108.333 C 26.175 108.407,26.000 108.709,26.000 109.005 C 26.000 109.301,25.731 109.812,25.402 110.141 C 25.073 110.469,24.747 111.115,24.677 111.575 C 24.607 112.035,24.336 112.624,24.075 112.885 C 23.814 113.146,23.600 113.755,23.600 114.237 C 23.600 114.720,23.330 115.218,23.000 115.345 C 22.670 115.471,22.400 115.953,22.400 116.416 C 22.400 116.879,22.130 117.527,21.800 117.857 C 21.470 118.187,21.200 118.785,21.200 119.186 C 21.200 119.587,20.930 120.018,20.600 120.145 C 20.256 120.277,20.000 120.874,20.000 121.545 C 20.000 122.215,19.744 122.813,19.400 122.945 C 19.070 123.071,18.800 123.631,18.800 124.187 C 18.800 124.838,18.577 125.200,18.176 125.200 C 17.833 125.200,17.666 125.384,17.805 125.608 C 18.107 126.097,17.273 128.800,16.819 128.800 C 16.644 128.800,16.500 129.287,16.500 129.883 C 16.500 130.479,16.298 131.034,16.050 131.117 C 15.803 131.199,15.600 131.972,15.600 132.833 C 15.600 133.959,15.431 134.400,15.000 134.400 C 14.604 134.400,14.400 134.796,14.400 135.567 C 14.400 136.208,14.216 136.795,13.991 136.870 C 13.765 136.945,13.465 137.723,13.323 138.600 C 13.180 139.476,12.825 140.433,12.532 140.725 C 12.239 141.018,12.000 141.942,12.000 142.780 C 12.000 143.645,11.741 144.517,11.400 144.800 C 11.060 145.083,10.800 145.955,10.800 146.816 C 10.800 147.650,10.594 148.402,10.342 148.486 C 10.090 148.570,9.805 149.514,9.709 150.583 C 9.614 151.652,9.288 152.905,8.984 153.368 C 8.681 153.830,8.476 154.976,8.528 155.913 C 8.589 156.989,8.467 157.558,8.198 157.454 C 7.927 157.351,7.729 158.332,7.655 160.145 C 7.576 162.102,7.360 163.101,6.970 163.320 C 6.551 163.555,6.400 164.485,6.400 166.820 C 6.400 169.380,6.283 170.000,5.800 170.000 C 5.303 170.000,5.200 170.756,5.200 174.400 C 5.200 177.999,5.093 178.800,4.614 178.800 C 3.710 178.800,3.690 220.706,4.593 221.053 C 5.081 221.240,5.200 222.091,5.200 225.394 C 5.200 228.558,5.338 229.617,5.800 230.000 C 6.240 230.366,6.400 231.336,6.400 233.649 C 6.400 236.183,6.517 236.800,7.000 236.800 C 7.476 236.800,7.600 237.374,7.600 239.567 C 7.600 241.088,7.780 242.393,7.999 242.467 C 8.219 242.540,8.426 243.410,8.460 244.400 C 8.494 245.390,8.764 246.555,9.061 246.989 C 9.357 247.423,9.601 248.323,9.602 248.989 C 9.604 249.655,9.874 250.716,10.202 251.346 C 10.531 251.976,10.800 252.998,10.800 253.617 C 10.800 254.236,11.070 255.013,11.400 255.343 C 11.730 255.673,12.000 256.573,12.000 257.343 C 12.000 258.113,12.270 259.013,12.600 259.343 C 12.930 259.673,13.200 260.591,13.200 261.384 C 13.200 262.296,13.420 262.910,13.800 263.055 C 14.137 263.185,14.400 263.780,14.400 264.414 C 14.400 265.035,14.670 265.813,15.000 266.143 C 15.330 266.473,15.600 267.281,15.600 267.938 C 15.600 268.595,15.769 269.193,15.976 269.267 C 16.184 269.340,16.447 269.924,16.562 270.565 C 16.677 271.206,16.957 271.917,17.185 272.145 C 17.413 272.373,17.600 272.965,17.600 273.460 C 17.600 273.955,17.864 274.508,18.187 274.689 C 18.509 274.869,18.817 275.593,18.871 276.298 C 18.925 277.003,19.201 277.668,19.484 277.777 C 19.768 277.886,20.000 278.328,20.000 278.759 C 20.000 279.190,20.270 279.813,20.600 280.143 C 20.930 280.473,21.200 281.206,21.200 281.771 C 21.200 282.419,21.422 282.800,21.800 282.800 C 22.175 282.800,22.400 283.179,22.400 283.813 C 22.400 284.369,22.670 284.929,23.000 285.055 C 23.330 285.182,23.600 285.612,23.600 286.010 C 23.600 286.707,24.737 289.185,25.246 289.600 C 25.381 289.710,25.631 290.250,25.800 290.800 C 25.969 291.350,26.273 291.906,26.474 292.036 C 26.675 292.166,26.869 292.661,26.905 293.136 C 26.941 293.611,27.202 294.000,27.485 294.000 C 27.768 294.000,28.000 294.366,28.000 294.813 C 28.000 295.259,28.270 295.729,28.600 295.855 C 28.930 295.982,29.200 296.426,29.200 296.843 C 29.200 297.259,29.470 297.600,29.800 297.600 C 30.200 297.600,30.400 298.000,30.400 298.800 C 30.400 299.600,30.600 300.000,31.000 300.000 C 31.330 300.000,31.600 300.341,31.600 300.757 C 31.600 301.174,31.872 301.619,32.204 301.746 C 32.536 301.873,32.769 302.118,32.723 302.289 C 32.604 302.723,35.196 306.800,35.591 306.800 C 35.768 306.800,36.018 307.219,36.147 307.731 C 36.276 308.243,36.821 309.138,37.359 309.718 C 37.898 310.299,38.454 311.140,38.596 311.587 C 38.738 312.034,39.022 312.400,39.227 312.400 C 39.432 312.400,39.600 312.604,39.600 312.854 C 39.600 313.104,40.050 313.725,40.600 314.235 C 41.150 314.745,41.600 315.333,41.600 315.543 C 41.600 316.019,44.435 319.444,44.692 319.280 C 44.796 319.214,45.249 319.905,45.700 320.815 C 46.150 321.726,46.762 322.564,47.059 322.678 C 47.357 322.792,47.600 323.061,47.600 323.274 C 47.600 323.488,48.365 324.454,49.300 325.421 C 50.235 326.387,51.450 327.754,52.000 328.458 C 52.550 329.162,53.810 330.582,54.800 331.614 C 55.790 332.645,57.069 334.009,57.642 334.644 C 58.215 335.280,59.242 336.250,59.925 336.800 C 60.608 337.350,61.174 338.025,61.183 338.300 C 61.192 338.575,61.470 338.800,61.800 338.800 C 62.130 338.800,62.400 339.070,62.400 339.400 C 62.400 339.730,62.578 340.000,62.795 340.000 C 63.417 340.000,67.169 343.894,66.869 344.228 C 66.721 344.393,66.820 344.402,67.089 344.247 C 67.364 344.089,67.885 344.324,68.278 344.783 C 68.663 345.232,69.298 345.600,69.689 345.600 C 70.080 345.600,70.400 345.870,70.400 346.200 C 70.400 346.530,70.670 346.800,71.000 346.800 C 71.330 346.800,71.600 347.030,71.600 347.312 C 71.600 347.593,71.978 348.088,72.441 348.412 C 72.903 348.735,73.928 349.585,74.719 350.300 C 75.509 351.015,76.391 351.600,76.678 351.600 C 76.965 351.600,77.200 351.780,77.200 352.000 C 77.200 352.220,77.470 352.400,77.800 352.400 C 78.130 352.400,78.400 352.670,78.400 353.000 C 78.400 353.330,78.580 353.600,78.800 353.600 C 79.331 353.600,80.800 355.087,80.800 355.624 C 80.800 355.857,80.935 355.968,81.100 355.871 C 81.614 355.568,83.265 356.371,83.002 356.797 C 82.865 357.018,83.123 357.200,83.576 357.200 C 84.029 357.200,84.400 357.432,84.400 357.715 C 84.400 357.998,84.793 358.259,85.273 358.296 C 85.754 358.332,86.305 358.644,86.498 358.989 C 86.691 359.334,87.018 359.512,87.225 359.385 C 87.431 359.257,87.600 359.433,87.600 359.776 C 87.600 360.133,87.942 360.400,88.400 360.400 C 89.220 360.400,91.079 361.962,90.900 362.500 C 90.845 362.665,91.259 362.800,91.819 362.800 C 92.380 362.800,93.235 363.225,93.719 363.744 C 94.204 364.264,94.989 364.811,95.464 364.960 C 95.939 365.109,96.546 365.494,96.813 365.815 C 97.080 366.137,97.636 366.400,98.049 366.400 C 98.462 366.400,98.800 366.553,98.800 366.739 C 98.800 366.926,99.565 367.416,100.500 367.828 C 101.435 368.240,102.344 368.807,102.520 369.089 C 102.696 369.370,103.196 369.600,103.632 369.600 C 104.068 369.600,104.529 369.870,104.655 370.200 C 104.782 370.530,105.297 370.800,105.800 370.800 C 106.303 370.800,106.818 371.070,106.945 371.400 C 107.071 371.730,107.611 372.000,108.145 372.000 C 108.678 372.000,109.218 372.270,109.345 372.600 C 109.471 372.930,110.011 373.200,110.545 373.200 C 111.078 373.200,111.618 373.470,111.745 373.800 C 111.871 374.130,112.296 374.406,112.687 374.413 C 113.079 374.420,113.742 374.684,114.159 375.000 C 114.576 375.316,115.051 375.492,115.214 375.392 C 115.376 375.291,115.732 375.477,116.004 375.804 C 116.276 376.132,116.907 376.400,117.406 376.400 C 117.906 376.400,118.418 376.670,118.545 377.000 C 118.671 377.330,119.186 377.606,119.687 377.613 C 120.189 377.620,120.949 377.890,121.376 378.213 C 121.804 378.536,122.574 378.800,123.089 378.800 C 123.604 378.800,124.129 379.070,124.255 379.400 C 124.383 379.734,124.978 380.000,125.594 380.000 C 126.203 380.000,126.926 380.270,127.200 380.600 C 127.474 380.930,128.227 381.200,128.873 381.200 C 129.519 381.200,129.949 381.360,129.828 381.555 C 129.591 381.938,130.882 382.386,132.251 382.395 C 132.719 382.398,133.326 382.670,133.600 383.000 C 133.874 383.330,134.706 383.600,135.449 383.600 C 136.192 383.600,136.800 383.780,136.800 384.000 C 136.800 384.220,137.498 384.400,138.351 384.400 C 139.242 384.400,140.114 384.655,140.400 385.000 C 140.700 385.362,141.576 385.600,142.606 385.600 C 143.756 385.600,144.390 385.796,144.545 386.200 C 144.698 386.598,145.326 386.800,146.416 386.800 C 147.341 386.800,148.319 387.062,148.657 387.400 C 149.056 387.798,150.054 388.000,151.629 388.000 C 153.470 388.000,154.000 388.134,154.000 388.600 C 154.000 389.051,154.483 389.200,155.951 389.200 C 157.024 389.200,158.549 389.470,159.338 389.800 C 160.128 390.130,161.748 390.400,162.938 390.400 C 164.181 390.400,165.279 390.613,165.517 390.900 C 165.776 391.212,167.256 391.444,169.462 391.516 C 171.404 391.580,173.165 391.805,173.376 392.016 C 173.592 392.232,176.853 392.400,180.837 392.400 C 186.759 392.400,187.952 392.498,188.145 393.000 C 188.490 393.899,205.910 393.899,206.255 393.000 C 206.447 392.501,207.580 392.400,213.017 392.400 C 216.609 392.400,220.027 392.218,220.612 391.995 C 221.197 391.773,222.964 391.526,224.538 391.447 C 226.112 391.368,227.880 391.110,228.468 390.874 C 229.055 390.638,230.720 390.406,232.168 390.359 C 234.061 390.298,234.800 390.123,234.800 389.737 C 234.800 389.342,235.493 389.200,237.413 389.200 C 239.366 389.200,240.083 389.049,240.255 388.600 C 240.421 388.169,241.096 388.000,242.655 388.000 C 244.215 388.000,244.890 387.831,245.055 387.400 C 245.217 386.979,245.873 386.800,247.255 386.800 C 248.637 386.800,249.294 386.621,249.455 386.200 C 249.606 385.808,250.229 385.600,251.255 385.600 C 252.282 385.600,252.905 385.392,253.055 385.000 C 253.217 384.580,253.872 384.400,255.243 384.400 C 256.319 384.400,257.200 384.254,257.200 384.076 C 257.200 383.805,259.160 383.137,262.900 382.134 C 263.285 382.031,263.600 381.778,263.600 381.573 C 263.600 381.368,264.236 381.200,265.013 381.200 C 265.899 381.200,266.511 380.977,266.655 380.600 C 266.782 380.270,267.282 380.000,267.766 380.000 C 268.251 380.000,268.996 379.736,269.424 379.413 C 269.851 379.090,270.695 378.820,271.300 378.813 C 272.005 378.805,272.400 378.585,272.400 378.200 C 272.400 377.800,272.800 377.600,273.600 377.600 C 274.400 377.600,274.800 377.400,274.800 377.000 C 274.800 376.584,275.219 376.400,276.167 376.400 C 276.918 376.400,277.597 376.209,277.675 375.975 C 277.753 375.741,278.328 375.493,278.954 375.425 C 279.579 375.356,280.213 375.102,280.363 374.860 C 280.512 374.618,281.067 374.354,281.596 374.273 C 282.125 374.193,282.627 373.918,282.712 373.663 C 282.797 373.409,283.190 373.200,283.584 373.200 C 283.979 373.200,284.526 372.930,284.800 372.600 C 285.074 372.270,285.642 372.000,286.062 372.000 C 286.481 372.000,286.929 371.730,287.055 371.400 C 287.182 371.070,287.604 370.800,287.994 370.800 C 288.383 370.800,288.926 370.530,289.200 370.200 C 289.474 369.870,290.042 369.600,290.462 369.600 C 290.881 369.600,291.329 369.330,291.455 369.000 C 291.582 368.670,292.007 368.400,292.400 368.400 C 292.793 368.400,293.222 368.119,293.354 367.775 C 293.486 367.431,293.761 367.252,293.965 367.378 C 294.169 367.504,294.607 367.336,294.939 367.004 C 295.271 366.672,295.804 366.400,296.122 366.400 C 296.441 366.400,296.926 366.130,297.200 365.800 C 297.474 365.470,297.946 365.200,298.249 365.200 C 298.552 365.200,298.800 364.930,298.800 364.600 C 298.800 364.241,299.169 364.000,299.719 364.000 C 300.249 364.000,301.053 363.500,301.619 362.817 C 302.158 362.166,303.005 361.626,303.500 361.617 C 304.026 361.607,304.400 361.351,304.400 361.000 C 304.400 360.670,304.655 360.400,304.967 360.400 C 305.278 360.400,305.594 360.218,305.668 359.996 C 305.742 359.774,306.206 359.514,306.699 359.420 C 307.191 359.325,308.022 358.786,308.543 358.223 C 309.065 357.661,309.656 357.200,309.857 357.200 C 310.057 357.200,310.813 356.660,311.536 356.000 C 312.258 355.340,313.018 354.800,313.225 354.800 C 313.431 354.800,313.600 354.530,313.600 354.200 C 313.600 353.864,313.957 353.600,314.413 353.600 C 314.859 353.600,315.329 353.330,315.455 353.000 C 315.582 352.670,315.942 352.400,316.255 352.400 C 316.569 352.400,316.929 352.130,317.055 351.800 C 317.182 351.470,317.459 351.200,317.671 351.200 C 317.884 351.200,318.289 350.975,318.573 350.700 C 318.857 350.425,319.762 349.660,320.585 349.000 C 321.408 348.340,322.320 347.575,322.612 347.300 C 322.904 347.025,323.336 346.800,323.571 346.800 C 323.807 346.800,324.000 346.530,324.000 346.200 C 324.000 345.870,324.270 345.600,324.600 345.600 C 324.930 345.600,325.200 345.330,325.200 345.000 C 325.200 344.670,325.470 344.400,325.800 344.400 C 326.130 344.400,326.400 344.119,326.400 343.776 C 326.400 343.433,326.580 343.264,326.800 343.400 C 327.020 343.536,327.200 343.367,327.200 343.024 C 327.200 342.681,327.462 342.400,327.782 342.400 C 328.577 342.400,338.800 332.224,338.800 331.433 C 338.800 331.085,339.070 330.800,339.400 330.800 C 339.730 330.800,340.000 330.530,340.000 330.200 C 340.000 329.870,340.270 329.600,340.600 329.600 C 340.930 329.600,341.200 329.330,341.200 329.000 C 341.200 328.670,341.348 328.400,341.528 328.400 C 342.006 328.400,344.400 326.194,344.400 325.753 C 344.400 325.547,344.940 324.787,345.600 324.064 C 346.260 323.342,346.800 322.492,346.800 322.175 C 346.800 321.859,347.070 321.600,347.400 321.600 C 347.730 321.600,348.000 321.330,348.000 321.000 C 348.000 320.670,348.180 320.400,348.400 320.400 C 348.926 320.400,350.167 319.087,350.322 318.367 C 350.389 318.055,350.701 317.602,351.016 317.360 C 351.330 317.119,351.475 316.808,351.337 316.670 C 351.198 316.532,351.381 316.305,351.743 316.167 C 352.104 316.028,352.400 315.765,352.400 315.582 C 352.400 315.399,352.940 314.658,353.600 313.936 C 354.260 313.213,354.800 312.411,354.800 312.154 C 354.800 311.896,355.070 311.582,355.400 311.455 C 355.730 311.329,356.000 310.949,356.000 310.613 C 356.000 310.276,356.177 310.000,356.392 310.000 C 356.608 310.000,356.894 309.563,357.028 309.029 C 357.163 308.495,357.526 307.961,357.836 307.841 C 358.146 307.722,358.400 307.427,358.400 307.184 C 358.400 306.941,358.672 306.471,359.004 306.139 C 359.336 305.807,359.504 305.369,359.378 305.165 C 359.252 304.961,359.431 304.686,359.775 304.554 C 360.119 304.422,360.400 304.083,360.400 303.800 C 360.400 303.517,360.670 303.182,361.000 303.055 C 361.330 302.929,361.600 302.479,361.600 302.055 C 361.600 301.632,361.870 301.182,362.200 301.055 C 362.530 300.929,362.800 300.369,362.800 299.813 C 362.800 299.256,363.025 298.798,363.300 298.796 C 363.575 298.794,364.155 297.984,364.590 296.996 C 365.024 296.008,365.501 295.200,365.651 295.200 C 365.800 295.200,366.110 294.660,366.340 294.000 C 366.570 293.340,366.942 292.800,367.167 292.800 C 367.391 292.800,367.480 292.553,367.364 292.252 C 367.249 291.950,367.434 291.423,367.777 291.080 C 368.120 290.737,368.400 289.994,368.400 289.429 C 368.400 288.781,368.622 288.400,369.000 288.400 C 369.366 288.400,369.600 288.027,369.600 287.443 C 369.600 286.916,369.870 286.382,370.200 286.255 C 370.530 286.129,370.800 285.589,370.800 285.055 C 370.800 284.522,371.070 283.982,371.400 283.855 C 371.730 283.729,372.000 283.189,372.000 282.655 C 372.000 282.122,372.270 281.582,372.600 281.455 C 372.930 281.329,373.200 280.847,373.200 280.384 C 373.200 279.921,373.470 279.273,373.800 278.943 C 374.130 278.613,374.400 278.018,374.400 277.620 C 374.400 277.223,374.670 276.674,375.000 276.400 C 375.330 276.126,375.600 275.384,375.600 274.751 C 375.600 274.118,375.780 273.600,376.000 273.600 C 376.220 273.600,376.400 273.144,376.400 272.587 C 376.400 272.031,376.670 271.471,377.000 271.345 C 377.387 271.196,377.600 270.577,377.600 269.600 C 377.600 268.623,377.813 268.004,378.200 267.855 C 378.592 267.705,378.800 267.082,378.800 266.055 C 378.800 265.029,379.008 264.406,379.400 264.255 C 379.778 264.110,380.000 263.498,380.000 262.600 C 380.000 261.702,380.222 261.090,380.600 260.945 C 380.987 260.796,381.200 260.177,381.200 259.200 C 381.200 258.223,381.413 257.604,381.800 257.455 C 382.198 257.303,382.400 256.674,382.400 255.589 C 382.400 254.600,382.558 254.051,382.800 254.200 C 383.020 254.336,383.212 254.302,383.227 254.124 C 383.512 250.707,383.674 249.778,384.004 249.667 C 384.222 249.593,384.400 248.553,384.400 247.354 C 384.400 245.786,384.568 245.110,385.000 244.945 C 385.422 244.783,385.600 244.125,385.600 242.729 C 385.600 241.497,385.828 240.515,386.200 240.143 C 386.594 239.749,386.800 238.755,386.800 237.248 C 386.800 235.849,387.029 234.650,387.387 234.176 C 387.790 233.643,387.979 232.366,387.987 230.100 C 387.998 227.439,388.116 226.800,388.600 226.800 C 389.102 226.800,389.200 225.959,389.200 221.629 C 389.200 217.640,389.333 216.324,389.781 215.876 C 390.646 215.011,390.703 185.799,389.841 184.842 C 389.415 184.368,389.229 182.799,389.132 178.833 C 389.038 174.992,388.858 173.418,388.500 173.299 C 388.153 173.184,388.000 172.105,388.000 169.767 C 388.000 167.041,387.886 166.400,387.400 166.400 C 386.920 166.400,386.800 165.799,386.800 163.387 C 386.800 161.079,386.660 160.321,386.200 160.145 C 385.760 159.976,385.600 159.282,385.600 157.545 C 385.600 155.807,385.440 155.113,385.000 154.945 C 384.571 154.780,384.400 154.109,384.400 152.591 C 384.400 151.422,384.235 150.407,384.034 150.333 C 383.833 150.260,383.577 149.305,383.465 148.210 C 383.352 147.116,383.067 146.156,382.830 146.077 C 382.594 145.998,382.400 145.331,382.400 144.595 C 382.400 143.859,382.130 142.987,381.800 142.657 C 381.470 142.327,381.200 141.434,381.200 140.671 C 381.200 139.809,380.974 139.199,380.600 139.055 C 380.222 138.910,380.000 138.298,380.000 137.400 C 380.000 136.502,379.778 135.890,379.400 135.745 C 379.008 135.594,378.800 134.971,378.800 133.945 C 378.800 132.918,378.592 132.295,378.200 132.145 C 377.828 132.002,377.600 131.393,377.600 130.545 C 377.600 129.696,377.372 129.087,377.000 128.945 C 376.670 128.818,376.400 128.271,376.400 127.729 C 376.400 127.186,376.130 126.473,375.800 126.143 C 375.470 125.813,375.200 125.196,375.200 124.771 C 375.200 124.347,375.020 124.000,374.800 124.000 C 374.580 124.000,374.400 123.563,374.400 123.029 C 374.400 122.494,374.152 121.809,373.849 121.506 C 373.546 121.203,373.171 120.380,373.017 119.677 C 372.863 118.975,372.571 118.400,372.368 118.400 C 372.166 118.400,372.000 117.944,372.000 117.387 C 372.000 116.831,371.730 116.271,371.400 116.145 C 371.070 116.018,370.800 115.484,370.800 114.957 C 370.800 114.373,370.566 114.000,370.200 114.000 C 369.800 114.000,369.600 113.600,369.600 112.800 C 369.600 112.000,369.400 111.600,369.000 111.600 C 368.635 111.600,368.400 111.228,368.400 110.649 C 368.400 110.126,368.132 109.476,367.804 109.204 C 367.477 108.932,367.298 108.564,367.408 108.387 C 367.518 108.210,367.359 107.817,367.056 107.514 C 366.753 107.211,366.380 106.566,366.226 106.081 C 366.072 105.597,365.778 105.200,365.573 105.200 C 365.368 105.200,365.200 104.840,365.200 104.400 C 365.200 103.956,364.933 103.600,364.600 103.600 C 364.225 103.600,364.000 103.221,364.000 102.587 C 364.000 102.031,363.730 101.471,363.400 101.345 C 363.070 101.218,362.800 100.684,362.800 100.157 C 362.800 99.573,362.566 99.200,362.200 99.200 C 361.870 99.200,361.600 98.924,361.600 98.587 C 361.600 98.251,361.330 97.871,361.000 97.745 C 360.670 97.618,360.400 97.084,360.400 96.557 C 360.400 95.973,360.166 95.600,359.800 95.600 C 359.470 95.600,359.200 95.330,359.200 95.000 C 359.200 94.670,359.020 94.400,358.800 94.400 C 358.580 94.400,358.400 94.034,358.400 93.587 C 358.400 93.139,357.860 92.245,357.200 91.600 C 356.540 90.955,356.000 90.061,356.000 89.613 C 356.000 89.157,355.737 88.800,355.400 88.800 C 355.070 88.800,354.800 88.530,354.800 88.200 C 354.800 87.870,354.530 87.600,354.200 87.600 C 353.864 87.600,353.600 87.243,353.600 86.787 C 353.600 86.341,353.330 85.871,353.000 85.745 C 352.670 85.618,352.397 85.309,352.394 85.057 C 352.390 84.806,351.895 84.033,351.294 83.341 C 350.692 82.648,349.930 81.681,349.600 81.192 C 349.270 80.702,348.775 80.067,348.500 79.780 C 348.225 79.492,348.000 79.064,348.000 78.829 C 348.000 78.593,347.730 78.400,347.400 78.400 C 347.070 78.400,346.800 78.130,346.800 77.800 C 346.800 77.470,346.530 77.200,346.200 77.200 C 345.870 77.200,345.600 76.859,345.600 76.443 C 345.600 76.026,345.330 75.582,345.000 75.455 C 344.670 75.329,344.400 74.949,344.400 74.613 C 344.400 74.276,344.130 74.000,343.800 74.000 C 343.470 74.000,343.245 73.842,343.300 73.648 C 343.355 73.455,342.905 72.833,342.300 72.267 C 341.695 71.701,341.200 71.050,341.200 70.819 C 341.200 70.589,341.020 70.400,340.800 70.400 C 340.281 70.400,338.800 68.919,338.800 68.400 C 338.800 68.180,338.530 68.000,338.200 68.000 C 337.870 68.000,337.600 67.730,337.600 67.400 C 337.600 67.070,337.375 66.799,337.100 66.799 C 336.825 66.798,336.247 66.271,335.816 65.627 C 335.385 64.984,334.890 64.545,334.716 64.652 C 334.542 64.759,334.400 64.567,334.400 64.224 C 334.400 63.881,334.130 63.600,333.800 63.600 C 333.470 63.600,333.200 63.330,333.200 63.000 C 333.200 62.670,332.930 62.400,332.600 62.400 C 332.270 62.400,332.000 62.130,332.000 61.800 C 332.000 61.470,331.730 61.200,331.400 61.200 C 331.070 61.200,330.800 60.930,330.800 60.600 C 330.800 60.270,330.530 60.000,330.200 60.000 C 329.870 60.000,329.600 59.730,329.600 59.400 C 329.600 59.070,329.330 58.800,329.000 58.800 C 328.670 58.800,328.398 58.575,328.396 58.300 C 328.394 58.025,327.815 57.350,327.109 56.800 C 326.402 56.250,325.133 55.135,324.287 54.322 C 323.442 53.510,322.221 52.611,321.575 52.325 C 320.929 52.039,320.400 51.651,320.400 51.463 C 320.400 50.982,317.473 48.431,317.150 48.631 C 317.004 48.721,316.781 48.526,316.654 48.198 C 316.528 47.869,316.059 47.600,315.613 47.600 C 315.157 47.600,314.800 47.336,314.800 47.000 C 314.800 46.670,314.530 46.400,314.200 46.400 C 313.870 46.400,313.600 46.130,313.600 45.800 C 313.600 45.470,313.330 45.200,313.000 45.200 C 312.670 45.200,312.400 45.023,312.400 44.808 C 312.400 44.592,311.950 44.302,311.400 44.164 C 310.850 44.026,310.400 43.663,310.400 43.357 C 310.400 43.050,310.130 42.800,309.800 42.800 C 309.470 42.800,309.200 42.620,309.200 42.400 C 309.200 42.180,308.970 42.000,308.689 42.000 C 308.408 42.000,307.863 41.632,307.478 41.183 C 307.093 40.734,306.602 40.475,306.387 40.608 C 306.171 40.742,305.886 40.569,305.754 40.225 C 305.622 39.881,305.264 39.600,304.957 39.600 C 304.651 39.600,304.400 39.423,304.400 39.208 C 304.400 38.992,303.963 38.706,303.429 38.572 C 302.895 38.437,302.361 38.074,302.241 37.764 C 302.122 37.454,301.749 37.200,301.413 37.200 C 301.076 37.200,300.800 37.023,300.800 36.808 C 300.800 36.592,300.363 36.306,299.829 36.172 C 299.295 36.037,298.761 35.674,298.641 35.364 C 298.522 35.054,297.969 34.800,297.413 34.800 C 296.856 34.800,296.400 34.641,296.400 34.446 C 296.400 34.025,294.531 32.748,293.744 32.633 C 293.441 32.588,292.978 32.338,292.716 32.076 C 292.454 31.814,291.916 31.600,291.520 31.600 C 291.124 31.600,290.800 31.330,290.800 31.000 C 290.800 30.600,290.400 30.400,289.600 30.400 C 288.800 30.400,288.400 30.200,288.400 29.800 C 288.400 29.425,288.021 29.200,287.387 29.200 C 286.831 29.200,286.271 28.930,286.145 28.600 C 286.018 28.270,285.503 28.000,285.000 28.000 C 284.497 28.000,283.982 27.730,283.855 27.400 C 283.729 27.070,283.169 26.800,282.613 26.800 C 282.056 26.800,281.600 26.620,281.600 26.400 C 281.600 26.180,281.358 26.000,281.061 26.000 C 280.765 26.000,280.107 25.640,279.600 25.200 C 279.093 24.760,278.356 24.400,277.962 24.400 C 277.569 24.400,277.136 24.220,277.000 24.000 C 276.864 23.780,276.308 23.600,275.764 23.600 C 275.220 23.600,274.671 23.330,274.545 23.000 C 274.418 22.670,273.871 22.400,273.329 22.400 C 272.786 22.400,272.073 22.130,271.743 21.800 C 271.413 21.470,270.725 21.200,270.214 21.200 C 269.703 21.200,269.182 20.930,269.055 20.600 C 268.921 20.249,268.321 20.000,267.613 20.000 C 266.946 20.000,266.400 19.828,266.400 19.618 C 266.400 19.408,265.725 19.112,264.900 18.960 C 264.075 18.809,263.305 18.540,263.190 18.364 C 263.074 18.187,262.359 17.934,261.600 17.800 C 260.841 17.666,260.107 17.373,259.968 17.148 C 259.829 16.923,258.969 16.639,258.058 16.517 C 257.146 16.395,256.400 16.138,256.400 15.947 C 256.400 15.756,255.612 15.600,254.649 15.600 C 253.580 15.600,252.704 15.366,252.400 15.000 C 252.100 14.638,251.224 14.400,250.194 14.400 C 249.044 14.400,248.410 14.204,248.255 13.800 C 248.094 13.379,247.437 13.200,246.055 13.200 C 244.673 13.200,244.017 13.021,243.855 12.600 C 243.694 12.179,243.038 12.000,241.662 12.000 C 240.404 12.000,239.519 11.784,239.200 11.400 C 238.859 10.990,237.950 10.800,236.322 10.800 C 234.741 10.800,233.742 10.599,233.343 10.200 C 232.924 9.781,231.898 9.600,229.943 9.600 C 228.108 9.600,226.954 9.411,226.596 9.053 C 226.212 8.669,224.817 8.489,221.924 8.450 C 219.607 8.418,217.742 8.220,217.667 7.997 C 217.486 7.459,175.718 7.451,175.533 7.989 M232.403 76.828 C 233.171 77.064,235.240 77.415,237.000 77.608 C 240.419 77.983,244.314 78.744,248.200 79.795 C 249.520 80.152,251.230 80.596,252.000 80.783 C 252.770 80.970,254.390 81.514,255.600 81.993 C 256.810 82.472,258.378 83.036,259.086 83.247 C 259.793 83.457,260.478 83.803,260.609 84.015 C 260.740 84.227,261.265 84.400,261.775 84.400 C 262.285 84.400,262.926 84.670,263.200 85.000 C 263.474 85.330,263.917 85.600,264.185 85.600 C 264.843 85.600,269.766 88.060,269.933 88.472 C 270.007 88.652,270.285 88.800,270.552 88.800 C 270.819 88.800,272.271 89.610,273.778 90.600 C 275.285 91.590,276.571 92.400,276.634 92.400 C 276.853 92.400,282.200 96.116,282.400 96.407 C 282.510 96.567,283.298 97.170,284.152 97.747 C 287.384 99.930,296.562 108.532,299.813 112.426 C 300.260 112.962,301.475 114.409,302.513 115.643 C 303.551 116.877,304.400 118.077,304.400 118.310 C 304.400 118.543,304.544 118.793,304.720 118.867 C 305.164 119.051,309.525 125.751,309.980 126.947 C 310.184 127.483,310.542 128.040,310.775 128.185 C 311.009 128.329,311.200 128.775,311.200 129.175 C 311.200 129.575,311.470 130.126,311.800 130.400 C 312.130 130.674,312.400 131.236,312.400 131.649 C 312.400 132.062,312.566 132.400,312.768 132.400 C 312.971 132.400,313.255 132.940,313.400 133.600 C 313.545 134.260,313.829 134.800,314.032 134.800 C 314.234 134.800,314.400 135.172,314.400 135.626 C 314.400 136.081,314.620 136.846,314.888 137.326 C 316.541 140.284,318.843 147.863,320.014 154.200 C 320.258 155.520,320.629 157.230,320.837 158.000 C 322.427 163.879,322.435 184.946,320.848 189.181 C 320.638 189.741,320.360 191.092,320.230 192.181 C 320.006 194.055,319.661 195.436,318.727 198.200 C 318.504 198.860,318.177 200.030,318.000 200.800 C 317.552 202.750,316.865 204.637,315.044 208.914 C 314.690 209.746,314.400 210.691,314.400 211.014 C 314.400 211.336,314.220 211.600,314.000 211.600 C 313.780 211.600,313.600 211.856,313.600 212.168 C 313.600 212.679,312.649 214.619,309.598 220.326 C 308.275 222.802,305.211 227.365,304.758 227.533 C 304.561 227.607,304.400 227.851,304.400 228.076 C 304.400 228.474,302.295 231.397,301.431 232.200 C 301.194 232.420,300.280 233.499,299.400 234.597 C 297.359 237.145,292.495 242.060,289.400 244.700 C 288.080 245.827,286.370 247.297,285.600 247.968 C 284.830 248.638,284.093 249.190,283.961 249.194 C 283.830 249.197,283.349 249.515,282.894 249.900 C 280.599 251.838,273.599 256.388,272.900 256.395 C 272.625 256.398,272.400 256.562,272.400 256.761 C 272.400 256.959,271.905 257.310,271.300 257.540 C 270.695 257.771,269.570 258.315,268.800 258.750 C 266.932 259.806,262.092 262.000,261.631 262.000 C 261.430 262.000,260.755 262.259,260.132 262.576 C 258.031 263.643,256.083 264.400,255.434 264.400 C 255.079 264.400,254.477 264.567,254.095 264.771 C 253.101 265.302,249.691 266.276,247.702 266.596 C 246.768 266.746,245.903 267.034,245.778 267.235 C 245.654 267.436,244.977 267.600,244.274 267.600 C 243.570 267.600,242.366 267.796,241.597 268.036 C 240.829 268.276,238.670 268.631,236.800 268.825 C 234.930 269.019,232.140 269.356,230.600 269.576 C 227.003 270.087,216.224 270.090,212.600 269.580 C 211.060 269.363,208.270 269.024,206.400 268.828 C 204.530 268.631,202.493 268.274,201.874 268.035 C 201.255 267.796,200.050 267.600,199.198 267.600 C 198.345 267.600,197.546 267.436,197.422 267.235 C 197.297 267.034,196.432 266.746,195.498 266.596 C 193.509 266.276,190.099 265.302,189.105 264.771 C 188.723 264.567,188.161 264.400,187.856 264.400 C 186.918 264.400,174.175 258.710,173.600 258.034 C 173.490 257.905,172.500 257.364,171.400 256.832 C 170.300 256.300,169.310 255.760,169.200 255.632 C 169.090 255.504,168.149 254.984,167.109 254.476 C 166.069 253.968,165.113 253.384,164.985 253.176 C 164.345 252.140,162.920 252.904,161.019 255.301 C 159.929 256.676,158.759 258.089,158.419 258.443 C 157.712 259.177,156.865 260.192,154.608 263.012 C 153.733 264.105,152.833 265.198,152.608 265.441 C 152.384 265.683,151.480 266.755,150.600 267.822 C 149.720 268.889,148.370 270.501,147.600 271.405 C 146.830 272.309,145.570 273.837,144.800 274.800 C 144.030 275.763,142.690 277.372,141.822 278.376 C 140.022 280.458,139.990 280.496,137.173 284.000 C 136.023 285.430,134.876 286.780,134.624 287.000 C 134.371 287.220,133.484 288.300,132.652 289.400 C 131.820 290.500,130.568 292.030,129.869 292.801 C 129.171 293.572,127.579 295.480,126.330 297.042 C 125.082 298.604,123.821 300.134,123.527 300.441 C 123.233 300.748,121.799 302.440,120.340 304.200 C 113.223 312.785,109.831 314.566,100.561 314.586 C 96.515 314.595,93.764 314.429,93.161 314.141 C 92.632 313.889,91.210 313.281,90.000 312.790 C 87.698 311.857,84.400 309.702,84.400 309.132 C 84.400 308.949,84.175 308.791,83.900 308.781 C 82.703 308.736,77.611 300.993,77.599 299.200 C 77.597 298.870,77.307 298.060,76.954 297.400 C 76.083 295.770,75.948 286.059,76.768 284.000 C 79.592 276.904,81.027 275.278,91.600 267.189 C 92.590 266.432,93.580 265.616,93.800 265.376 C 94.020 265.135,95.009 264.322,95.999 263.569 C 97.786 262.208,99.298 260.977,100.153 260.187 C 100.399 259.960,101.228 259.332,101.995 258.792 C 102.762 258.252,103.668 257.538,104.008 257.205 C 104.349 256.872,105.227 256.150,105.960 255.600 C 106.694 255.050,107.857 254.139,108.547 253.575 C 109.236 253.011,110.970 251.669,112.400 250.593 C 113.830 249.518,115.090 248.534,115.200 248.408 C 115.310 248.282,116.210 247.564,117.200 246.812 C 119.473 245.085,126.533 239.473,126.800 239.181 C 126.910 239.061,128.170 238.077,129.600 236.993 C 131.030 235.910,132.740 234.525,133.400 233.914 C 134.060 233.303,134.748 232.803,134.929 232.802 C 135.109 232.801,135.489 232.575,135.773 232.300 C 136.057 232.025,136.944 231.261,137.744 230.602 C 138.545 229.943,139.200 229.184,139.200 228.914 C 139.200 228.485,136.984 224.944,136.376 224.400 C 135.053 223.217,126.800 207.003,126.800 205.586 C 126.800 205.332,126.555 204.646,126.255 204.062 C 125.517 202.621,124.782 200.496,124.427 198.769 C 124.265 197.982,123.996 197.117,123.829 196.847 C 123.662 196.576,123.372 195.420,123.184 194.277 C 122.997 193.135,122.650 191.210,122.412 190.000 C 122.175 188.790,121.773 186.630,121.518 185.200 C 120.923 181.855,120.922 165.023,121.517 161.600 C 121.765 160.170,122.163 157.920,122.402 156.600 C 122.640 155.280,122.974 153.390,123.144 152.400 C 123.432 150.717,123.890 149.083,124.879 146.200 C 125.106 145.540,125.384 144.460,125.496 143.800 C 125.608 143.140,125.830 142.420,125.989 142.200 C 126.148 141.980,126.589 140.810,126.970 139.600 C 127.585 137.642,130.646 130.774,131.604 129.200 C 131.805 128.870,132.381 127.790,132.885 126.800 C 133.388 125.810,133.899 124.910,134.021 124.800 C 134.143 124.690,134.671 123.880,135.195 123.000 C 138.539 117.386,146.027 108.475,151.846 103.188 C 155.903 99.501,164.168 93.126,166.000 92.271 C 166.330 92.117,167.140 91.631,167.800 91.191 C 168.460 90.751,169.315 90.282,169.700 90.149 C 170.085 90.016,170.400 89.782,170.400 89.630 C 170.400 89.477,171.388 88.913,172.596 88.376 C 173.804 87.839,174.794 87.265,174.796 87.100 C 174.798 86.935,174.998 86.800,175.240 86.800 C 175.681 86.800,176.311 86.540,180.424 84.663 C 183.086 83.449,185.829 82.416,187.200 82.114 C 187.750 81.992,188.387 81.746,188.616 81.567 C 188.844 81.388,189.744 81.061,190.616 80.839 C 191.487 80.617,193.280 80.142,194.600 79.784 C 195.920 79.425,198.045 78.968,199.321 78.768 C 200.598 78.569,201.981 78.224,202.395 78.003 C 202.809 77.781,204.014 77.592,205.074 77.581 C 206.133 77.571,208.170 77.323,209.600 77.029 C 212.871 76.358,230.365 76.204,232.403 76.828 " stroke="none" fill="#04547c" fill-rule="evenodd"></path><path id="path4" d="M209.600 77.029 C 208.170 77.323,206.190 77.574,205.200 77.587 C 204.210 77.601,202.680 77.871,201.800 78.188 C 199.748 78.928,200.717 78.942,205.100 78.237 C 214.550 76.718,222.633 76.475,233.000 77.399 L 235.000 77.578 233.000 76.997 C 230.335 76.222,213.417 76.246,209.600 77.029 M236.800 77.991 C 240.423 78.641,243.187 78.845,241.600 78.345 C 240.830 78.102,239.030 77.851,237.600 77.786 C 235.243 77.679,235.168 77.698,236.800 77.991 M197.107 79.027 C 196.982 79.152,195.827 79.520,194.540 79.845 C 193.253 80.170,191.487 80.617,190.616 80.839 C 189.744 81.061,188.844 81.388,188.616 81.567 C 188.387 81.746,187.750 81.992,187.200 82.114 C 185.829 82.416,183.086 83.449,180.424 84.663 C 176.311 86.540,175.681 86.800,175.240 86.800 C 174.998 86.800,174.798 86.935,174.796 87.100 C 174.794 87.265,173.804 87.839,172.596 88.376 C 171.388 88.913,170.400 89.477,170.400 89.630 C 170.400 89.782,170.085 90.016,169.700 90.149 C 169.315 90.282,168.460 90.751,167.800 91.191 C 167.140 91.631,166.330 92.117,166.000 92.271 C 164.168 93.126,155.903 99.501,151.846 103.188 C 146.027 108.475,138.539 117.386,135.195 123.000 C 134.671 123.880,134.143 124.690,134.021 124.800 C 133.899 124.910,133.388 125.810,132.885 126.800 C 132.381 127.790,131.805 128.870,131.604 129.200 C 130.726 130.642,127.614 137.577,127.026 139.400 C 126.672 140.500,126.188 141.781,125.951 142.247 C 125.715 142.714,125.585 143.429,125.664 143.837 C 125.743 144.245,126.323 143.054,126.953 141.190 C 127.981 138.149,129.133 135.398,131.135 131.206 C 132.243 128.886,137.156 120.770,138.418 119.178 C 139.068 118.357,139.600 117.501,139.600 117.276 C 139.600 117.051,139.735 116.807,139.900 116.733 C 140.065 116.660,140.914 115.700,141.788 114.600 C 143.233 112.778,144.549 111.311,148.452 107.170 C 152.536 102.836,163.104 94.361,167.200 92.135 C 167.970 91.716,169.333 90.903,170.228 90.327 C 172.897 88.612,181.209 84.756,185.900 83.057 C 189.314 81.820,190.409 81.489,194.800 80.364 C 200.419 78.924,200.557 78.871,198.767 78.832 C 197.978 78.814,197.231 78.902,197.107 79.027 M244.200 79.227 C 244.860 79.455,247.020 80.058,249.000 80.566 C 252.412 81.442,254.959 82.235,257.200 83.118 C 257.750 83.335,259.010 83.829,260.000 84.217 C 271.621 88.762,284.247 97.326,294.412 107.558 C 302.465 115.664,307.072 122.066,312.189 132.262 C 313.484 134.842,314.373 136.235,314.383 135.700 C 314.392 135.205,314.234 134.800,314.032 134.800 C 313.829 134.800,313.545 134.260,313.400 133.600 C 313.255 132.940,312.971 132.400,312.768 132.400 C 312.566 132.400,312.400 132.062,312.400 131.649 C 312.400 131.236,312.130 130.674,311.800 130.400 C 311.470 130.126,311.200 129.575,311.200 129.175 C 311.200 128.775,311.009 128.329,310.775 128.185 C 310.542 128.040,310.184 127.483,309.980 126.947 C 309.525 125.751,305.164 119.051,304.720 118.867 C 304.544 118.793,304.400 118.543,304.400 118.310 C 304.400 118.077,303.551 116.877,302.513 115.643 C 301.475 114.409,300.260 112.962,299.813 112.426 C 296.562 108.532,287.384 99.930,284.152 97.747 C 283.298 97.170,282.510 96.567,282.400 96.407 C 282.200 96.116,276.853 92.400,276.634 92.400 C 276.571 92.400,275.285 91.590,273.778 90.600 C 272.271 89.610,270.819 88.800,270.552 88.800 C 270.285 88.800,270.007 88.652,269.933 88.472 C 269.766 88.060,264.843 85.600,264.185 85.600 C 263.917 85.600,263.474 85.330,263.200 85.000 C 262.926 84.670,262.285 84.400,261.775 84.400 C 261.265 84.400,260.740 84.227,260.609 84.015 C 260.478 83.803,259.793 83.457,259.086 83.247 C 258.378 83.036,256.810 82.472,255.600 81.993 C 254.390 81.514,252.770 80.970,252.000 80.783 C 251.230 80.596,249.520 80.146,248.200 79.781 C 246.880 79.417,245.170 79.050,244.400 78.966 L 243.000 78.812 244.200 79.227 M215.400 99.163 C 214.300 99.293,217.180 99.401,221.800 99.402 C 226.533 99.403,229.152 99.291,227.800 99.145 C 224.874 98.830,218.125 98.840,215.400 99.163 M209.106 99.828 C 208.981 99.953,208.006 100.202,206.939 100.381 C 205.615 100.603,205.380 100.715,206.200 100.736 C 206.860 100.753,208.390 100.519,209.600 100.217 C 211.324 99.787,211.533 99.661,210.567 99.634 C 209.888 99.615,209.231 99.702,209.106 99.828 M232.737 99.991 C 233.253 100.217,234.693 100.484,235.937 100.584 C 237.933 100.745,238.011 100.725,236.600 100.422 C 233.365 99.726,231.715 99.542,232.737 99.991 M202.800 101.200 C 202.470 101.413,201.840 101.599,201.400 101.612 C 200.960 101.625,200.060 101.900,199.400 102.222 C 198.104 102.856,198.189 102.846,201.765 101.956 C 203.646 101.488,204.943 100.828,204.000 100.818 C 203.670 100.815,203.130 100.987,202.800 101.200 M238.439 100.973 C 238.714 101.247,244.570 102.763,244.732 102.601 C 244.812 102.521,244.095 102.245,243.139 101.988 C 242.183 101.730,240.987 101.358,240.481 101.160 C 239.541 100.792,238.129 100.662,238.439 100.973 M196.000 103.400 C 195.450 103.714,194.797 103.978,194.550 103.986 C 193.792 104.010,189.486 106.020,189.711 106.245 C 189.827 106.361,190.255 106.272,190.661 106.047 C 191.067 105.823,192.030 105.382,192.800 105.068 C 197.040 103.340,198.141 102.826,197.600 102.827 C 197.270 102.828,196.550 103.086,196.000 103.400 M245.600 103.067 C 245.930 103.180,246.767 103.526,247.460 103.836 C 248.154 104.146,248.964 104.396,249.260 104.391 C 249.557 104.386,249.015 104.026,248.056 103.591 C 247.097 103.156,246.017 102.814,245.656 102.832 C 245.115 102.858,245.106 102.899,245.600 103.067 M252.224 105.787 C 252.651 106.110,253.270 106.374,253.600 106.373 C 253.948 106.372,253.780 106.132,253.200 105.800 C 251.885 105.048,251.236 105.040,252.224 105.787 M187.776 106.987 C 187.349 107.310,187.180 107.575,187.400 107.575 C 187.620 107.575,188.149 107.310,188.576 106.987 C 189.004 106.664,189.173 106.400,188.953 106.400 C 188.733 106.400,188.204 106.664,187.776 106.987 M254.976 107.013 C 255.404 107.336,255.933 107.600,256.153 107.600 C 256.373 107.600,256.204 107.336,255.776 107.013 C 255.349 106.690,254.820 106.425,254.600 106.425 C 254.380 106.425,254.549 106.690,254.976 107.013 M185.424 108.213 C 184.996 108.536,184.827 108.800,185.047 108.800 C 185.267 108.800,185.796 108.536,186.224 108.213 C 186.651 107.890,186.820 107.625,186.600 107.625 C 186.380 107.625,185.851 107.890,185.424 108.213 M257.191 108.189 C 257.470 108.525,257.859 108.800,258.057 108.800 C 258.254 108.800,259.177 109.280,260.108 109.866 C 261.039 110.452,261.574 110.657,261.297 110.321 C 261.020 109.985,259.869 109.230,258.739 108.644 C 257.534 108.019,256.894 107.831,257.191 108.189 M183.400 109.345 C 176.359 113.455,167.489 121.345,162.428 128.000 C 159.175 132.276,154.115 140.648,154.531 141.064 C 154.605 141.138,154.919 140.704,155.228 140.099 C 159.797 131.176,170.118 118.599,175.888 114.927 C 176.499 114.537,177.090 114.105,177.200 113.967 C 177.569 113.503,182.847 110.000,183.176 110.000 C 183.355 110.000,183.726 109.730,184.000 109.400 C 184.573 108.710,184.500 108.703,183.400 109.345 M262.481 111.300 C 263.286 112.048,266.800 114.411,266.800 114.204 C 266.800 113.969,262.507 110.800,262.189 110.800 C 262.053 110.800,262.185 111.025,262.481 111.300 M268.971 116.069 C 270.056 117.021,272.261 119.098,273.871 120.684 C 275.482 122.270,276.798 123.440,276.796 123.284 C 276.789 122.828,270.770 117.080,268.800 115.647 L 267.000 114.338 268.971 116.069 M278.717 125.800 C 279.437 126.680,280.773 128.432,281.687 129.693 C 282.600 130.954,283.422 131.911,283.513 131.821 C 283.730 131.603,279.122 125.557,278.157 124.792 C 277.745 124.467,277.997 124.920,278.717 125.800 M285.085 134.780 C 285.903 136.089,286.630 137.103,286.699 137.034 C 286.903 136.831,284.230 132.417,283.899 132.408 C 283.733 132.404,284.267 133.471,285.085 134.780 M314.400 137.065 C 314.400 137.309,314.669 138.024,314.998 138.654 C 315.326 139.284,315.596 140.079,315.598 140.420 C 315.599 140.761,315.743 141.211,315.918 141.420 C 316.230 141.793,316.935 144.024,318.123 148.400 C 322.421 164.229,322.704 180.533,318.934 195.200 C 318.397 197.290,317.804 199.630,317.618 200.400 C 317.294 201.736,316.653 203.670,315.960 205.400 C 311.670 216.114,308.858 221.300,303.051 229.200 C 299.122 234.546,293.344 240.720,288.448 244.805 C 287.264 245.792,286.094 246.780,285.847 247.000 C 280.910 251.405,263.650 261.600,261.129 261.600 C 260.754 261.600,260.353 261.753,260.237 261.940 C 260.122 262.126,258.356 262.832,256.314 263.508 C 249.631 265.719,246.786 266.462,239.200 267.983 C 231.972 269.431,218.176 269.762,209.800 268.688 C 200.788 267.533,200.869 267.539,202.000 268.031 C 202.550 268.270,204.530 268.628,206.400 268.826 C 208.270 269.024,211.060 269.363,212.600 269.580 C 216.224 270.090,227.003 270.087,230.600 269.576 C 232.140 269.356,234.930 269.019,236.800 268.825 C 238.670 268.631,240.829 268.276,241.597 268.036 C 242.366 267.796,243.570 267.600,244.274 267.600 C 244.977 267.600,245.654 267.436,245.778 267.235 C 245.903 267.034,246.768 266.746,247.702 266.596 C 249.691 266.276,253.101 265.302,254.095 264.771 C 254.477 264.567,255.079 264.400,255.434 264.400 C 256.083 264.400,258.031 263.643,260.132 262.576 C 260.755 262.259,261.430 262.000,261.631 262.000 C 262.092 262.000,266.932 259.806,268.800 258.750 C 269.570 258.315,270.695 257.771,271.300 257.540 C 271.905 257.310,272.400 256.959,272.400 256.761 C 272.400 256.562,272.625 256.398,272.900 256.395 C 273.599 256.388,280.599 251.838,282.894 249.900 C 283.349 249.515,283.830 249.197,283.961 249.194 C 284.093 249.190,284.830 248.638,285.600 247.968 C 286.370 247.297,288.080 245.827,289.400 244.700 C 292.495 242.060,297.359 237.145,299.400 234.597 C 300.280 233.499,301.194 232.420,301.431 232.200 C 302.295 231.397,304.400 228.474,304.400 228.076 C 304.400 227.851,304.561 227.607,304.758 227.533 C 305.211 227.365,308.275 222.802,309.598 220.326 C 312.649 214.619,313.600 212.679,313.600 212.168 C 313.600 211.856,313.780 211.600,314.000 211.600 C 314.220 211.600,314.400 211.336,314.400 211.014 C 314.400 210.691,314.690 209.746,315.044 208.914 C 316.865 204.637,317.552 202.750,318.000 200.800 C 318.177 200.030,318.504 198.860,318.727 198.200 C 319.661 195.436,320.006 194.055,320.230 192.181 C 320.360 191.092,320.638 189.741,320.848 189.181 C 322.435 184.946,322.427 163.879,320.837 158.000 C 320.629 157.230,320.258 155.520,320.014 154.200 C 319.126 149.392,318.014 145.254,316.629 141.600 C 316.254 140.610,315.841 139.440,315.711 139.000 C 315.408 137.972,314.400 136.484,314.400 137.065 M286.803 137.700 C 286.813 138.089,290.386 144.903,290.392 144.544 C 290.402 143.991,287.277 137.600,286.998 137.600 C 286.889 137.600,286.801 137.645,286.803 137.700 M174.992 139.131 C 174.547 139.279,173.737 139.718,173.192 140.108 L 172.200 140.815 172.200 178.108 C 172.200 218.200,172.166 217.513,174.131 217.587 C 174.313 217.594,175.002 218.140,175.662 218.800 C 176.322 219.460,176.985 220.000,177.135 220.000 C 177.285 220.000,177.856 220.407,178.404 220.904 C 180.220 222.553,182.709 224.400,183.115 224.400 C 183.335 224.400,183.618 224.670,183.745 225.000 C 183.871 225.330,184.332 225.600,184.768 225.600 C 185.204 225.600,185.704 225.827,185.880 226.104 C 186.056 226.381,186.920 226.966,187.800 227.404 C 188.680 227.842,189.490 228.290,189.600 228.400 C 190.272 229.072,195.439 231.200,196.400 231.200 C 196.786 231.200,197.334 231.479,197.617 231.820 C 197.903 232.165,198.590 232.387,199.166 232.320 L 200.200 232.200 200.302 186.776 L 200.403 141.353 199.176 140.176 L 197.949 139.000 186.874 138.931 C 180.783 138.893,175.436 138.983,174.992 139.131 M198.633 140.976 C 199.114 141.636,199.200 148.473,199.200 186.276 L 199.200 230.800 198.250 230.800 C 197.382 230.800,195.891 230.221,190.808 227.911 C 186.381 225.898,177.563 219.612,174.700 216.427 L 172.800 214.313 172.800 178.744 C 172.800 140.296,172.779 140.695,174.866 140.278 C 178.092 139.634,198.081 140.221,198.633 140.976 M153.685 142.413 C 153.418 142.840,153.201 143.417,153.202 143.695 C 153.204 143.973,153.477 143.678,153.810 143.040 C 154.503 141.711,154.411 141.250,153.685 142.413 M152.625 144.759 C 152.143 145.540,151.279 148.798,151.609 148.595 C 151.790 148.483,152.063 147.808,152.215 147.095 C 152.368 146.383,152.677 145.571,152.903 145.290 C 153.129 145.010,153.216 144.683,153.097 144.564 C 152.978 144.444,152.765 144.532,152.625 144.759 M124.865 145.817 C 124.609 146.378,124.400 147.201,124.400 147.645 C 124.400 148.089,124.201 148.824,123.959 149.277 C 123.716 149.731,123.363 151.024,123.174 152.151 C 122.986 153.278,122.637 155.280,122.400 156.600 C 122.162 157.920,121.765 160.170,121.517 161.600 C 120.922 165.023,120.923 181.855,121.518 185.200 C 121.773 186.630,122.175 188.790,122.412 190.000 C 122.650 191.210,122.997 193.135,123.184 194.277 C 123.372 195.420,123.662 196.576,123.829 196.847 C 123.996 197.117,124.265 197.982,124.427 198.769 C 124.782 200.496,125.517 202.621,126.255 204.062 C 126.555 204.646,126.800 205.332,126.800 205.586 C 126.800 207.003,135.053 223.217,136.376 224.400 C 136.984 224.944,139.200 228.485,139.200 228.914 C 139.200 229.184,138.545 229.943,137.744 230.602 C 136.944 231.261,136.057 232.025,135.773 232.300 C 135.489 232.575,135.109 232.801,134.929 232.802 C 134.748 232.803,134.060 233.303,133.400 233.914 C 132.740 234.525,131.030 235.910,129.600 236.993 C 128.170 238.077,126.910 239.061,126.800 239.181 C 126.533 239.473,119.473 245.085,117.200 246.812 C 116.210 247.564,115.310 248.282,115.200 248.408 C 115.090 248.534,113.830 249.518,112.400 250.593 C 110.970 251.669,109.236 253.011,108.547 253.575 C 107.857 254.139,106.694 255.050,105.960 255.600 C 105.227 256.150,104.349 256.872,104.008 257.205 C 103.668 257.538,102.762 258.252,101.995 258.792 C 101.228 259.332,100.399 259.960,100.153 260.187 C 99.298 260.977,97.786 262.208,95.999 263.569 C 95.009 264.322,94.020 265.135,93.800 265.376 C 93.580 265.616,92.590 266.432,91.600 267.189 C 81.027 275.278,79.592 276.904,76.768 284.000 C 75.948 286.059,76.083 295.770,76.954 297.400 C 77.307 298.060,77.597 298.870,77.599 299.200 C 77.611 300.993,82.703 308.736,83.900 308.781 C 84.175 308.791,84.400 308.949,84.400 309.132 C 84.400 309.705,87.704 311.859,90.000 312.783 C 91.210 313.270,92.513 313.833,92.895 314.034 C 93.277 314.235,94.177 314.386,94.895 314.369 C 96.005 314.343,95.842 314.230,93.800 313.611 C 82.892 310.301,76.689 301.905,76.653 290.400 C 76.627 281.859,79.302 277.523,89.745 269.188 C 92.355 267.104,94.857 265.085,95.306 264.700 C 95.755 264.315,96.230 263.996,96.361 263.991 C 96.493 263.986,97.441 263.221,98.470 262.291 C 99.498 261.361,100.833 260.240,101.436 259.800 C 102.040 259.360,103.565 258.190,104.827 257.200 C 106.088 256.210,108.162 254.590,109.435 253.600 C 110.709 252.610,114.012 249.997,116.775 247.793 C 119.539 245.589,122.970 242.891,124.400 241.798 C 125.830 240.704,127.360 239.510,127.800 239.144 C 128.240 238.778,131.030 236.557,134.000 234.208 C 140.566 229.017,140.342 229.384,138.543 226.738 C 137.744 225.562,136.120 222.980,134.936 221.000 C 133.751 219.020,132.615 217.130,132.411 216.800 C 131.832 215.865,130.486 213.007,128.267 208.000 C 125.737 202.292,122.719 191.107,122.223 185.600 C 122.114 184.390,121.827 181.420,121.585 179.000 C 120.713 170.276,122.237 156.968,125.284 146.698 C 125.808 144.930,125.533 144.351,124.865 145.817 M290.400 145.496 C 290.400 145.685,290.550 146.011,290.733 146.220 C 290.915 146.429,291.288 147.383,291.560 148.339 C 291.833 149.295,292.143 149.990,292.250 149.883 C 292.514 149.619,291.194 145.644,290.752 145.370 C 290.558 145.251,290.400 145.307,290.400 145.496 M150.530 150.671 C 150.271 151.508,150.131 152.264,150.218 152.352 C 150.471 152.604,151.245 150.323,151.116 149.706 C 151.052 149.400,150.788 149.834,150.530 150.671 M292.434 150.800 C 292.437 151.539,293.522 153.977,293.568 153.346 C 293.585 153.096,293.337 152.286,293.016 151.546 C 292.694 150.806,292.432 150.470,292.434 150.800 M293.633 155.000 C 293.621 155.440,293.867 156.610,294.179 157.600 C 294.491 158.590,294.756 159.040,294.767 158.600 C 294.779 158.160,294.533 156.990,294.221 156.000 C 293.909 155.010,293.644 154.560,293.633 155.000 M149.073 155.753 C 148.923 156.145,148.811 156.766,148.825 157.133 C 148.842 157.575,148.981 157.474,149.237 156.834 C 149.449 156.303,149.561 155.682,149.485 155.454 C 149.409 155.227,149.224 155.361,149.073 155.753 M148.288 159.600 C 147.628 163.615,147.601 164.637,148.221 162.200 C 148.556 160.880,148.775 159.350,148.707 158.800 C 148.620 158.094,148.497 158.330,148.288 159.600 M295.027 161.800 C 295.143 162.900,295.377 165.330,295.549 167.200 L 295.862 170.600 295.905 167.600 C 295.929 165.950,295.694 163.520,295.383 162.200 L 294.818 159.800 295.027 161.800 M244.100 162.777 C 243.605 163.190,243.200 163.882,243.200 164.315 C 243.200 164.748,242.930 165.326,242.600 165.600 C 241.667 166.374,241.695 230.837,242.629 231.771 C 243.410 232.553,244.755 232.560,245.776 231.787 C 246.204 231.464,246.969 231.200,247.476 231.200 C 247.984 231.200,248.400 231.020,248.400 230.800 C 248.400 230.580,248.656 230.400,248.968 230.400 C 249.661 230.400,255.113 227.665,255.424 227.161 C 255.547 226.963,256.002 226.800,256.436 226.800 C 256.870 226.800,257.329 226.530,257.455 226.200 C 257.582 225.870,258.032 225.600,258.455 225.600 C 258.879 225.600,259.329 225.330,259.455 225.000 C 259.582 224.670,259.860 224.400,260.073 224.400 C 260.705 224.400,265.210 220.809,267.900 218.161 L 270.400 215.699 270.400 189.866 L 270.400 164.032 269.304 163.016 L 268.208 162.000 256.604 162.013 C 245.851 162.026,244.934 162.082,244.100 162.777 M268.519 163.709 L 269.600 164.418 269.600 189.923 L 269.600 215.427 267.500 217.429 C 265.336 219.492,261.387 222.800,261.088 222.800 C 260.995 222.800,259.691 223.607,258.190 224.592 C 252.086 228.601,243.952 231.895,243.442 230.564 C 243.108 229.695,243.214 166.441,243.551 165.200 C 244.146 163.010,245.543 162.770,257.019 162.891 C 266.203 162.987,267.566 163.084,268.519 163.709 M147.363 173.200 C 147.363 176.830,147.423 178.315,147.498 176.500 C 147.572 174.685,147.572 171.715,147.498 169.900 C 147.423 168.085,147.363 169.570,147.363 173.200 M296.124 173.400 C 296.126 174.720,296.201 175.212,296.290 174.493 C 296.379 173.774,296.377 172.694,296.286 172.093 C 296.195 171.492,296.122 172.080,296.124 173.400 M295.521 179.800 C 295.367 181.780,295.150 184.120,295.037 185.000 C 294.875 186.265,294.954 186.140,295.414 184.400 C 295.739 183.169,295.952 180.878,295.898 179.200 L 295.800 176.200 295.521 179.800 M147.660 183.200 C 147.655 183.750,147.895 185.280,148.192 186.600 C 148.545 188.167,148.739 188.583,148.750 187.800 C 148.759 187.140,148.519 185.610,148.217 184.400 C 147.915 183.190,147.664 182.650,147.660 183.200 M208.497 185.763 L 207.594 186.719 207.697 210.654 C 207.798 234.238,207.812 234.591,208.600 234.722 C 209.040 234.795,209.995 235.125,210.723 235.457 C 212.482 236.258,232.829 236.115,233.100 235.300 C 233.192 235.025,233.772 234.800,234.391 234.800 C 236.041 234.800,236.000 235.422,236.000 210.661 C 236.000 189.089,235.957 187.708,235.253 186.394 L 234.505 185.000 221.953 184.903 L 209.400 184.806 208.497 185.763 M233.656 185.964 L 234.600 186.729 234.709 210.364 C 234.769 223.364,234.769 234.009,234.709 234.020 C 225.240 235.717,209.958 235.439,208.759 233.548 C 208.024 232.386,208.325 188.050,209.078 186.776 C 209.983 185.243,209.516 185.299,221.856 185.246 C 231.986 185.203,232.774 185.251,233.656 185.964 M294.099 189.590 C 293.824 190.468,293.613 191.505,293.628 191.894 C 293.643 192.282,293.923 191.730,294.250 190.666 C 294.577 189.602,294.789 188.566,294.721 188.362 C 294.653 188.158,294.373 188.711,294.099 189.590 M148.842 189.480 C 148.741 190.639,151.953 200.980,152.304 200.629 C 152.399 200.535,151.923 198.780,151.247 196.729 C 150.571 194.678,149.762 192.100,149.451 191.000 C 149.139 189.900,148.865 189.216,148.842 189.480 M292.842 194.300 C 292.560 194.980,292.414 195.866,292.518 196.268 C 292.654 196.793,292.720 196.712,292.754 195.980 C 292.779 195.419,293.000 194.760,293.245 194.515 C 293.490 194.270,293.614 193.843,293.522 193.566 C 293.430 193.289,293.123 193.619,292.842 194.300 M291.611 198.171 C 290.981 199.829,291.154 200.379,291.822 198.839 C 292.147 198.091,292.325 197.391,292.217 197.284 C 292.110 197.177,291.837 197.576,291.611 198.171 M288.531 205.535 C 287.612 207.438,286.926 209.059,287.005 209.139 C 287.224 209.357,290.462 202.780,290.322 202.403 C 290.255 202.223,289.449 203.632,288.531 205.535 M153.227 203.200 C 153.226 203.530,153.490 204.149,153.813 204.576 C 154.560 205.564,154.552 204.915,153.800 203.600 C 153.468 203.020,153.228 202.852,153.227 203.200 M154.425 205.800 C 154.425 206.020,154.690 206.549,155.013 206.976 C 155.336 207.404,155.600 207.573,155.600 207.353 C 155.600 207.133,155.336 206.604,155.013 206.176 C 154.690 205.749,154.425 205.580,154.425 205.800 M155.600 208.208 C 155.600 208.322,156.050 209.129,156.600 210.000 C 157.150 210.871,157.600 211.672,157.600 211.780 C 157.600 212.378,162.171 218.557,165.371 222.285 C 169.283 226.842,178.800 235.331,178.800 234.263 C 178.800 234.150,177.675 233.202,176.300 232.156 C 173.921 230.348,172.689 229.270,168.969 225.745 C 167.268 224.134,163.038 219.199,162.000 217.617 C 161.670 217.114,161.209 216.499,160.975 216.251 C 160.742 216.003,159.505 214.045,158.226 211.900 C 156.095 208.324,155.600 207.629,155.600 208.208 M285.183 211.858 C 284.423 213.081,283.600 214.430,283.356 214.856 C 283.111 215.282,282.568 216.028,282.148 216.515 C 281.729 217.002,280.951 218.022,280.419 218.783 C 278.734 221.195,270.632 229.600,269.992 229.600 C 269.824 229.600,269.575 229.889,269.439 230.243 C 269.092 231.147,273.530 227.233,276.453 224.057 C 280.535 219.622,287.229 210.296,286.706 209.773 C 286.629 209.696,285.944 210.634,285.183 211.858 M265.080 233.570 C 263.593 234.654,262.157 235.620,261.889 235.716 C 261.620 235.812,261.490 235.989,261.600 236.109 C 261.710 236.230,263.324 235.265,265.187 233.964 C 267.049 232.664,268.396 231.600,268.178 231.600 C 267.961 231.600,266.567 232.487,265.080 233.570 M179.363 234.740 C 179.617 235.151,185.441 238.800,185.843 238.800 C 185.961 238.800,185.787 238.530,185.457 238.200 C 185.127 237.870,184.729 237.600,184.572 237.600 C 184.415 237.600,183.122 236.864,181.698 235.965 C 180.275 235.066,179.224 234.515,179.363 234.740 M186.400 238.950 C 186.400 239.159,193.112 242.405,193.492 242.379 C 193.762 242.361,186.824 238.800,186.519 238.800 C 186.453 238.800,186.400 238.868,186.400 238.950 M256.000 239.200 C 256.000 239.420,255.764 239.600,255.476 239.600 C 255.189 239.600,254.604 239.873,254.176 240.207 C 253.462 240.765,253.496 240.775,254.600 240.333 C 256.031 239.760,257.212 238.800,256.486 238.800 C 256.219 238.800,256.000 238.980,256.000 239.200 M250.806 241.623 C 248.971 242.646,249.784 242.628,251.800 241.600 C 252.663 241.160,253.106 240.810,252.785 240.823 C 252.463 240.836,251.573 241.196,250.806 241.623 M194.431 242.751 C 195.369 243.363,198.845 244.488,199.077 244.256 C 199.188 244.145,198.406 243.790,197.339 243.466 C 196.273 243.143,195.040 242.757,194.600 242.609 C 193.950 242.390,193.918 242.417,194.431 242.751 M246.657 243.214 C 245.589 243.620,244.614 244.053,244.491 244.176 C 244.139 244.528,245.137 244.438,245.905 244.048 C 246.287 243.854,247.230 243.416,248.000 243.074 C 249.923 242.219,249.032 242.312,246.657 243.214 M201.000 245.012 C 201.880 245.329,202.780 245.576,203.000 245.561 C 203.710 245.515,201.028 244.436,200.200 244.436 C 199.760 244.435,200.120 244.695,201.000 245.012 M241.000 245.014 C 239.413 245.741,240.180 245.739,242.200 245.012 C 243.080 244.695,243.440 244.442,243.000 244.450 C 242.560 244.458,241.660 244.712,241.000 245.014 M205.600 246.221 C 206.590 246.533,207.850 246.778,208.400 246.767 C 209.029 246.754,208.659 246.540,207.400 246.191 C 204.779 245.463,203.274 245.488,205.600 246.221 M236.800 246.000 C 236.470 246.213,235.750 246.411,235.200 246.440 C 234.580 246.473,234.452 246.560,234.864 246.669 C 235.230 246.766,236.400 246.577,237.464 246.250 C 238.787 245.844,239.083 245.649,238.400 245.634 C 237.850 245.622,237.130 245.787,236.800 246.000 M213.200 247.398 C 217.043 248.105,226.523 248.109,230.400 247.405 L 233.400 246.860 230.800 247.064 C 227.170 247.350,215.926 247.358,212.800 247.078 L 210.200 246.845 213.200 247.398 M159.922 255.700 C 154.573 262.308,152.647 264.651,150.445 267.223 C 149.210 268.666,147.570 270.639,146.800 271.607 C 146.030 272.575,144.230 274.739,142.800 276.414 C 141.370 278.090,139.570 280.247,138.800 281.206 C 138.030 282.166,136.770 283.696,136.000 284.607 C 135.230 285.518,133.880 287.142,133.000 288.215 C 132.120 289.288,130.320 291.453,129.000 293.025 C 127.680 294.598,124.662 298.232,122.293 301.101 C 115.025 309.905,112.809 311.741,107.200 313.615 C 105.549 314.166,105.272 314.356,106.089 314.375 C 109.483 314.453,115.259 310.329,120.340 304.200 C 121.799 302.440,123.233 300.748,123.527 300.441 C 123.821 300.134,125.082 298.604,126.330 297.042 C 127.579 295.480,129.171 293.572,129.869 292.801 C 130.568 292.030,131.820 290.500,132.652 289.400 C 133.484 288.300,134.371 287.220,134.624 287.000 C 134.876 286.780,136.023 285.430,137.173 284.000 C 139.990 280.496,140.022 280.458,141.822 278.376 C 142.690 277.372,144.030 275.763,144.800 274.800 C 145.570 273.837,146.830 272.309,147.600 271.405 C 148.370 270.501,149.720 268.889,150.600 267.822 C 151.480 266.755,152.384 265.683,152.608 265.441 C 152.833 265.198,153.733 264.105,154.608 263.012 C 156.865 260.192,157.712 259.177,158.419 258.443 C 158.759 258.089,159.929 256.676,161.019 255.301 C 162.920 252.904,164.345 252.140,164.985 253.176 C 165.113 253.384,166.069 253.968,167.109 254.476 C 168.149 254.984,169.090 255.504,169.200 255.632 C 169.310 255.760,170.300 256.300,171.400 256.832 C 172.500 257.364,173.490 257.905,173.600 258.034 C 174.175 258.710,186.918 264.400,187.856 264.400 C 188.161 264.400,188.723 264.567,189.105 264.771 C 190.099 265.302,193.509 266.276,195.498 266.596 C 196.432 266.746,197.297 267.034,197.422 267.235 C 197.546 267.436,198.402 267.586,199.324 267.568 C 200.769 267.540,200.475 267.399,197.200 266.548 C 195.110 266.004,192.860 265.417,192.200 265.242 C 190.134 264.694,184.672 262.773,183.000 262.006 C 177.323 259.402,174.096 257.790,170.634 255.829 C 168.469 254.603,166.563 253.600,166.398 253.600 C 166.233 253.600,165.874 253.330,165.600 253.000 C 164.328 251.468,162.734 252.226,159.922 255.700 M98.515 314.696 C 99.788 314.776,101.768 314.775,102.915 314.694 C 104.062 314.614,103.020 314.549,100.600 314.550 C 98.180 314.551,97.242 314.616,98.515 314.696 " stroke="none" fill="#54647c" fill-rule="evenodd"></path></g></svg>